<?xml version="1.0" encoding="UTF-8"?>
<svg width="218px" height="217px" viewBox="0 0 218 217" version="1.1" xmlns="http://www.w3.org/2000/svg" xmlns:xlink="http://www.w3.org/1999/xlink">
    <!-- Generator: Sketch 52.6 (67491) - http://www.bohemiancoding.com/sketch -->
    <title>Final_LogoSimpler_textbelow_Final_colored_background</title>
    <desc>Created with Sketch.</desc>
    <g id="Landing-page---Wireframe-Touch-and-Feel-Revised" stroke="none" stroke-width="1" fill="none" fill-rule="evenodd">
        <g id="Wireframe-Landing-Page-Copy" transform="translate(-579.000000, -32.000000)">
            <g id="CTA-First-Key-Objective" transform="translate(343.000000, 27.000000)">
                <g id="Final_LogoSimpler_textbelow_Final_colored_background" transform="translate(233.000000, 0.000000)">
                    <g id="logo_maincolor_background" transform="translate(3.214350, 5.248000)">
                        <g>
                            <g>
                                <ellipse id="Oval" fill="#9E55A1" fill-rule="nonzero" cx="108.596444" cy="108.096" rx="108.596444" ry="108.096"></ellipse>
                                <g id="Group" transform="translate(37.420444, 37.888000)">
                                    <g id="Logo_Coffeeshop_final">
                                        <g id="logo1" transform="translate(0.000000, 38.912000)">
                                            <g id="coffee_cup" transform="translate(4.500741, 0.000000)" fill-rule="nonzero" stroke="#8A92B8" stroke-linecap="round" stroke-linejoin="round">
                                                <path d="M0,0 C0,35.6289938 24.5418315,71.744 61.0814815,71.744 C97.6211314,71.744 124.220444,35.6289938 124.220444,0 L0,0 Z" id="Oval" stroke-width="17.792"></path>
                                                <path d="M0.128592593,77.44 L134.957926,77.44" id="Path-7" stroke-width="9.344"></path>
                                                <path d="M124.824626,8.256 C142.727153,4.84266667 151.678416,10.5294118 151.678416,25.3162355 C151.678416,40.1030592 139.653858,46.0429807 115.604741,43.136 L124.824626,8.256 Z" id="Path-3" stroke-width="9.728"></path>
                                            </g>
                                            <text id="Innovative-Coffee" font-family="K2D-ExtraBold, K2D ExtraBold" font-size="17.408" font-weight="600" letter-spacing="0.362666626" fill="#FFFFFF">
                                                <tspan x="0" y="97.36">Innovative Coffee</tspan>
                                            </text>
                                        </g>
                                        <path d="M73.8121481,25.28 C73.8121481,25.28 68.6191392,22.2984319 67.2539259,16 C66.6821328,13.3620238 73.1155392,8.57804753 70.7259259,5.696 C69.0321628,3.65319841 63.0740393,1.75453175 52.8515556,0" id="Path-2" stroke="#8A92B8" stroke-width="3.968" stroke-linecap="round" stroke-linejoin="round" fill-rule="nonzero"></path>
                                        <path d="M90.1434074,25.28 C90.1434074,25.28 84.9503985,22.2984319 83.5851852,16 C83.013392,13.3620238 89.4467985,8.57804753 87.0571852,5.696 C85.3634221,3.65319841 79.4052986,1.75453175 69.1828148,0" id="Path-2" stroke="#8A92B8" stroke-width="3.968" stroke-linecap="round" stroke-linejoin="round" fill-rule="nonzero"></path>
                                        <path d="M106.217481,25.28 C106.217481,25.28 101.024473,22.2984319 99.6592593,16 C99.0874661,13.3620238 105.520873,8.57804753 103.131259,5.696 C101.437496,3.65319841 95.4793727,1.75453175 85.2568889,0" id="Path-2" stroke="#8A92B8" stroke-width="3.968" stroke-linecap="round" stroke-linejoin="round" fill-rule="nonzero"></path>
                                    </g>
                                    <g id="light_bulb" transform="translate(78.055704, 55.552000)" fill-rule="nonzero" stroke="#E6E626" stroke-linecap="round" stroke-linejoin="round">
                                        <path d="M15.5090589,22.9162562 L5.60742929,22.9162562 L5.60742929,19.7802562 C0.871418687,16.4446071 -0.864581313,12.2846071 0.399429289,7.30025618 C1.66343989,2.31590526 5.0711436,-0.116094742 10.6225404,0.00425617721 C16.5521701,0.416098174 20.0670343,2.84809817 21.167133,7.30025618 C22.2672317,11.7524142 20.381207,15.9124142 15.5090589,19.7802562 L15.5090589,22.9162562 Z" id="Path-18" stroke-width="3.84"></path>
                                        <path d="M7.32977778,28.736 L14.2737778,28.736" id="Path-20" stroke-width="2.56"></path>
                                        <path d="M9.32296296,33.216 L12.152,33.216" id="Path-21" stroke-width="2.56"></path>
                                    </g>
                                </g>
                            </g>
                        </g>
                    </g>
                </g>
            </g>
        </g>
    </g>
</svg>